<svg width="76" height="80" viewBox="0 0 76 80" fill="none" xmlns="http://www.w3.org/2000/svg">
<g id="Vector" filter="url(#filter0_d_5_61)">
<path d="M7.21174 16.9053C8.2717 18.0532 10.2138 18.0312 12.4167 16.5933L18.3773 23.0491C16.3783 25.3036 14.8564 28.0518 14.0499 31.2153C13.612 32.9331 13.4319 34.6637 13.4387 36.3764L8.28118 36.3519C7.73804 34.4076 6.44675 33.3253 4.96255 33.319C3.08499 33.3096 1.63074 35.0056 1.75257 38.0413C1.87378 41.0779 3.46531 42.7883 5.34373 42.799C6.86035 42.806 8.08501 41.6845 8.44198 39.6598L13.7027 39.6855C14.2459 42.9932 15.5644 46.1373 17.5157 48.8585L14.9343 51.2362C13.3263 50.0618 11.8163 49.9815 10.8879 50.8367C9.7134 51.9185 9.91379 54.0629 11.9733 56.3209C14.033 58.5779 16.1417 58.9663 17.3163 57.8843C18.2651 57.011 18.2964 55.4395 17.1965 53.6794L19.6639 51.4075C22.1559 53.9639 25.2844 55.9549 28.8951 57.0443C30.2068 57.44 31.5204 57.6915 32.8228 57.825L33.361 63.2462C31.1181 63.8425 29.9738 65.1723 30.1223 66.6673C30.3097 68.5608 32.4717 69.9857 36.0555 69.7845C39.6389 69.5857 41.4975 67.9387 41.3083 66.0446C41.157 64.5152 39.7 63.3099 37.2648 63.0003L36.7521 57.8394C41.7791 57.3682 46.3657 55.005 49.6245 51.2678L55.4666 56.3166C54.4629 58.2042 54.6163 59.8641 55.6784 60.7785C57.0229 61.9417 59.2881 61.4795 61.3796 58.9785C63.4713 56.4786 63.5546 54.1315 62.2097 52.9681C61.124 52.0302 59.4386 52.1738 57.7285 53.5716L51.713 48.3755C52.635 46.8084 53.3717 45.0906 53.848 43.2222C54.2431 41.6723 54.4292 40.1125 54.4609 38.563L59.2239 37.9613C60.0628 40.1453 61.5103 41.2329 62.9825 41.0471C64.847 40.8114 66.0298 38.6525 65.4398 35.1431C64.8505 31.6376 63.0079 29.8583 61.1429 30.0939C59.6372 30.2836 58.5948 31.7459 58.5524 34.1424L54.184 34.694C53.4841 30.5053 51.5294 26.5911 48.6379 23.4624L52.0895 19.9493C53.8066 21.021 55.44 20.9208 56.4608 19.8815C57.754 18.5667 57.5768 16.2719 55.3925 14.0862C53.2089 11.8983 50.9354 11.7406 49.6411 13.0551C48.5974 14.1187 48.5339 15.8197 49.6899 17.5861L46.1778 21.1611C44.0907 19.504 41.6786 18.2006 39.0028 17.3933C38.0749 17.1134 37.1473 16.9261 36.2219 16.7779L36.4613 7.85341C38.4641 7.62834 39.5949 6.71622 39.6262 5.53958C39.6657 4.04559 37.9496 2.70778 34.8312 2.48052C31.7132 2.25444 29.9312 3.33623 29.8918 4.82895C29.8595 6.03432 30.9895 7.1293 33.0616 7.62939L32.8235 16.5021C28.6735 16.5404 24.7454 17.8712 21.5137 20.202L15.4931 13.6805C16.9831 11.6326 17.1171 9.74797 16.0804 8.62668C14.7676 7.20428 12.1098 7.53992 9.26848 10.1913C6.42764 12.8439 5.89821 15.4861 7.21174 16.9053Z" fill="#EAEAEA"/>
<path d="M7.21174 16.9053C8.2717 18.0532 10.2138 18.0312 12.4167 16.5933L18.3773 23.0491C16.3783 25.3036 14.8564 28.0518 14.0499 31.2153C13.612 32.9331 13.4319 34.6637 13.4387 36.3764L8.28118 36.3519C7.73804 34.4076 6.44675 33.3253 4.96255 33.319C3.08499 33.3096 1.63074 35.0056 1.75257 38.0413C1.87378 41.0779 3.46531 42.7883 5.34373 42.799C6.86035 42.806 8.08501 41.6845 8.44198 39.6598L13.7027 39.6855C14.2459 42.9932 15.5644 46.1373 17.5157 48.8585L14.9343 51.2362C13.3263 50.0618 11.8163 49.9815 10.8879 50.8367C9.7134 51.9185 9.91379 54.0629 11.9733 56.3209C14.033 58.5779 16.1417 58.9663 17.3163 57.8843C18.2651 57.011 18.2964 55.4395 17.1965 53.6794L19.6639 51.4075C22.1559 53.9639 25.2844 55.9549 28.8951 57.0443C30.2068 57.44 31.5204 57.6915 32.8228 57.825L33.361 63.2462C31.1181 63.8425 29.9738 65.1723 30.1223 66.6673C30.3097 68.5608 32.4717 69.9857 36.0555 69.7845C39.6389 69.5857 41.4975 67.9387 41.3083 66.0446C41.157 64.5152 39.7 63.3099 37.2648 63.0003L36.7521 57.8394C41.7791 57.3682 46.3657 55.005 49.6245 51.2678L55.4666 56.3166C54.4629 58.2042 54.6163 59.8641 55.6784 60.7785C57.0229 61.9417 59.2881 61.4795 61.3796 58.9785C63.4713 56.4786 63.5546 54.1315 62.2097 52.9681C61.124 52.0302 59.4386 52.1738 57.7285 53.5716L51.713 48.3755C52.635 46.8084 53.3717 45.0906 53.848 43.2222C54.2431 41.6723 54.4292 40.1125 54.4609 38.563L59.2239 37.9613C60.0628 40.1453 61.5103 41.2329 62.9825 41.0471C64.847 40.8114 66.0298 38.6525 65.4398 35.1431C64.8505 31.6376 63.0079 29.8583 61.1429 30.0939C59.6372 30.2836 58.5948 31.7459 58.5524 34.1424L54.184 34.694C53.4841 30.5053 51.5294 26.5911 48.6379 23.4624L52.0895 19.9493C53.8066 21.021 55.44 20.9208 56.4608 19.8815C57.754 18.5667 57.5768 16.2719 55.3925 14.0862C53.2089 11.8983 50.9354 11.7406 49.6411 13.0551C48.5974 14.1187 48.5339 15.8197 49.6899 17.5861L46.1778 21.1611C44.0907 19.504 41.6786 18.2006 39.0028 17.3933C38.0749 17.1134 37.1473 16.9261 36.2219 16.7779L36.4613 7.85341C38.4641 7.62834 39.5949 6.71622 39.6262 5.53958C39.6657 4.04559 37.9496 2.70778 34.8312 2.48052C31.7132 2.25444 29.9312 3.33623 29.8918 4.82895C29.8595 6.03432 30.9895 7.1293 33.0616 7.62939L32.8235 16.5021C28.6735 16.5404 24.7454 17.8712 21.5137 20.202L15.4931 13.6805C16.9831 11.6326 17.1171 9.74797 16.0804 8.62668C14.7676 7.20428 12.1098 7.53992 9.26848 10.1913C6.42764 12.8439 5.89821 15.4861 7.21174 16.9053Z" stroke="#BA2C73" stroke-width="3"/>
</g>
<defs>
<filter id="filter0_d_5_61" x="0.26239" y="0.933929" width="74.8131" height="78.3862" filterUnits="userSpaceOnUse" color-interpolation-filters="sRGB">
<feFlood flood-opacity="0" result="BackgroundImageFix"/>
<feColorMatrix in="SourceAlpha" type="matrix" values="0 0 0 0 0 0 0 0 0 0 0 0 0 0 0 0 0 0 127 0" result="hardAlpha"/>
<feOffset dx="4" dy="4"/>
<feGaussianBlur stdDeviation="2"/>
<feComposite in2="hardAlpha" operator="out"/>
<feColorMatrix type="matrix" values="0 0 0 0 0 0 0 0 0 0 0 0 0 0 0 0 0 0 0.25 0"/>
<feBlend mode="normal" in2="BackgroundImageFix" result="effect1_dropShadow_5_61"/>
<feBlend mode="normal" in="SourceGraphic" in2="effect1_dropShadow_5_61" result="shape"/>
</filter>
</defs>
</svg>
